<?xml version="1.0" encoding="iso-8859-1"?>
<!-- Uploaded to: SVG Repo, www.svgrepo.com, Generator: SVG Repo Mixer Tools -->
<svg version="1.1" id="Layer_1" xmlns="http://www.w3.org/2000/svg" xmlns:xlink="http://www.w3.org/1999/xlink" 
	 viewBox="0 0 438.87 438.87" xml:space="preserve">
<g>
	<path style="fill:#F2F2F2;" d="M336.95,349.477v89.39H101.92v-89.39c0-39.62,28.4-72.6,65.95-79.7c4.91-0.93,9.99-1.42,15.17-1.42
		h72.79c5.18,0,10.26,0.49,15.17,1.42C308.55,276.877,336.95,309.857,336.95,349.477z"/>
	<rect x="101.92" y="387.69" style="fill:#FFD3AE;" width="40.5" height="51.18"/>
	<rect x="296.45" y="387.69" style="fill:#FFD3AE;" width="40.5" height="51.18"/>
	<path style="fill:#5091CC;" d="M271,269.777v5.68c0,13.79-5.36,26.73-15.11,36.46c-9.73,9.74-22.68,15.1-36.46,15.1
		c-28.43,0-51.56-23.13-51.56-51.56v-5.68c4.91-0.93,9.99-1.42,15.17-1.42h72.79C261.01,268.357,266.09,268.847,271,269.777z"/>
	<path style="fill:#FFD3AE;" d="M263,245.69v29.77c0,12.02-4.87,22.92-12.76,30.8c-7.88,7.88-18.78,12.76-30.81,12.76
		c-24.06,0-43.56-19.5-43.56-43.56v-29.77L263,245.69L263,245.69z"/>
	<g>
		<g>
			<circle style="fill:#E5B591;" cx="138.861" cy="154.87" r="27.89"/>
			<circle style="fill:#E5B591;" cx="299.996" cy="154.87" r="27.89"/>
		</g>
	</g>
	<path style="fill:#E5B591;" d="M263,245.69v24.06c-12.86,7.29-27.73,11.45-43.57,11.45s-30.7-4.16-43.56-11.45v-24.06H263z"/>
	<path style="fill:#FFD3AE;" d="M307.928,103.37v74c0,30.35-15.28,57.13-38.56,73.07c-0.19,0.14-0.39,0.27-0.58,0.4
		c-8.69,5.85-18.48,10.2-28.98,12.67c-6.54,1.55-13.37,2.36-20.38,2.36c-7.01,0-13.83-0.81-20.37-2.36
		c-10.51-2.47-20.3-6.82-28.99-12.67c-0.19-0.13-0.39-0.26-0.58-0.4c-23.28-15.94-38.56-42.72-38.56-73.07v-74
		c0-48.88,39.62-88.5,88.5-88.5c24.44,0,46.56,9.9,62.58,25.92C298.028,56.81,307.928,78.93,307.928,103.37z"/>
	<g>
		<path style="fill:#E5B591;" d="M172.298,154.203h35.044c6.522,0,11.81,5.287,11.81,11.81v21.123c0,5.092,4.128,9.22,9.22,9.22
			h6.748l-2.943,1.044c-7.666,2.72-16.214,0.773-21.946-4.999L172.298,154.203z"/>
	</g>
	<g>
		<path style="fill:#333333;" d="M185.428,175.306c-1.58,0-3.13-0.64-4.24-1.75c-1.12-1.12-1.76-2.67-1.76-4.25s0.64-3.12,1.76-4.24
			c1.39-1.39,3.46-2.03,5.41-1.64c0.39,0.08,0.76,0.19,1.13,0.34c0.36,0.15,0.71,0.34,1.03,0.55c0.33,0.22,0.64,0.47,0.91,0.75
			c0.28,0.28,0.53,0.58,0.75,0.91s0.4,0.68,0.55,1.04c0.15,0.36,0.27,0.74,0.34,1.12c0.08,0.39,0.12,0.78,0.12,1.17
			s-0.04,0.79-0.12,1.18c-0.07,0.38-0.19,0.76-0.34,1.12s-0.33,0.71-0.55,1.03c-0.22,0.33-0.47,0.64-0.75,0.92
			C188.558,174.667,187.008,175.306,185.428,175.306z"/>
		<path style="fill:#333333;" d="M253.428,175.306c-0.39,0-0.79-0.04-1.17-0.11c-0.38-0.08-0.76-0.2-1.12-0.35
			c-0.37-0.15-0.71-0.33-1.04-0.55c-0.33-0.22-0.64-0.47-0.91-0.74c-0.28-0.28-0.53-0.59-0.75-0.92c-0.22-0.32-0.4-0.67-0.55-1.03
			c-0.15-0.36-0.27-0.74-0.34-1.12c-0.08-0.39-0.12-0.79-0.12-1.18s0.04-0.78,0.12-1.17c0.07-0.38,0.19-0.76,0.34-1.12
			s0.33-0.71,0.55-1.04c0.22-0.33,0.47-0.63,0.75-0.91c0.27-0.28,0.58-0.53,0.91-0.75c0.33-0.21,0.67-0.4,1.04-0.55
			c0.36-0.15,0.74-0.26,1.12-0.34c1.95-0.39,4.02,0.25,5.41,1.64c0.28,0.28,0.53,0.58,0.75,0.91s0.4,0.68,0.55,1.04
			s0.27,0.74,0.34,1.12c0.08,0.39,0.12,0.78,0.12,1.17s-0.04,0.79-0.12,1.18c-0.07,0.38-0.19,0.76-0.34,1.12s-0.33,0.71-0.55,1.03
			c-0.22,0.33-0.47,0.64-0.75,0.92C256.558,174.667,255.008,175.306,253.428,175.306z"/>
		<path style="fill:#A35814;" d="M196.366,157.203h-21.875c-3.087,0-5.59-2.503-5.59-5.59l0,0c0-3.087,2.503-5.59,5.59-5.59h21.875
			c3.087,0,5.59,2.503,5.59,5.59l0,0C201.956,154.701,199.453,157.203,196.366,157.203z"/>
		<path style="fill:#A35814;" d="M264.366,157.203h-21.875c-3.087,0-5.59-2.503-5.59-5.59l0,0c0-3.087,2.503-5.59,5.59-5.59h21.875
			c3.087,0,5.59,2.503,5.59,5.59l0,0C269.956,154.701,267.453,157.203,264.366,157.203z"/>
	</g>
	<path style="fill:#FFFFFF;" d="M244.663,208.867c0,2.98-0.52,5.83-1.48,8.49c-0.45,1.28-1.01,2.51-1.65,3.68
		c-4.3,7.78-12.58,13.05-22.1,13.05c-9.53,0-17.81-5.27-22.11-13.05c-0.65-1.17-1.21-2.4-1.66-3.68c-0.96-2.66-1.47-5.51-1.47-8.49
		H244.663z"/>
	<polygon style="fill:#E5B591;" points="308.088,116.02 130.928,128.131 130.928,103.37 	"/>
	<path style="fill:#4D4D4D;" d="M219.428,268.37c-7.104,0-14.151-0.817-20.946-2.427c-10.658-2.505-20.688-6.888-29.81-13.029
		l-0.166-0.112c-0.168-0.113-0.338-0.229-0.502-0.35c-24.754-16.948-39.576-45.035-39.576-75.082v-74c0-50.177,40.822-91,91-91
		c24.308,0,47.161,9.465,64.348,26.652s26.652,40.039,26.652,64.348v74c0,30.047-14.822,58.135-39.647,75.133
		c-0.096,0.073-0.269,0.19-0.44,0.305l-0.144,0.097c-9.132,6.148-19.159,10.531-29.816,13.038
		C233.59,267.553,226.539,268.37,219.428,268.37z M219.428,17.37c-47.42,0-86,38.579-86,86v74c0,28.396,14.008,54.941,37.473,71.007
		c0.178,0.13,0.29,0.204,0.398,0.277l0.18,0.122c8.603,5.792,18.08,9.933,28.151,12.3c12.852,3.046,26.772,3.042,39.602,0.001
		c10.071-2.369,19.543-6.511,28.16-12.312l0.156-0.105c0.112-0.075,0.226-0.151,0.335-0.232
		c23.536-16.117,37.544-42.662,37.544-71.058v-74c0-22.973-8.945-44.57-25.188-60.812C263.998,26.315,242.401,17.37,219.428,17.37z"
		/>
	<path style="fill:#333333;" d="M243.188,217.357c-0.45,1.28-1.01,2.51-1.65,3.68c-4.3,7.78-12.58,13.05-22.1,13.05
		c-9.53,0-17.81-5.27-22.11-13.05c-0.65-1.17-1.21-2.4-1.66-3.68H243.188z"/>
	<path style="fill:#2E6B99;" d="M322.148,101.96c0,7.77-6.29,14.06-14.06,14.06h-175.78c-3.88,0-7.4-1.57-9.95-4.12
		c-2.55-2.54-4.12-6.05-4.12-9.94c0-25.56,9.41-48.93,24.95-66.83c0.97,0.18,1.96,0.27,2.98,0.27c9.06,0,16.41-7.34,16.41-16.41
		c0-0.38-0.01-0.76-0.04-1.13c7.86-5.4,16.52-9.73,25.75-12.77c2.02,0.9,4.26,1.39,6.61,1.39c4.96,0,9.4-2.2,12.4-5.67
		c4.22-0.53,8.53-0.81,12.9-0.81s8.67,0.27,12.89,0.81c3,3.47,7.44,5.67,12.4,5.67c2.35,0,4.58-0.49,6.6-1.39
		c9.21,3.03,17.85,7.34,25.69,12.72c-0.03,0.39-0.04,0.78-0.04,1.18c0,9.07,7.34,16.41,16.4,16.41c1.04,0,2.06-0.1,3.05-0.28
		C312.738,53.02,322.148,76.4,322.148,101.96z"/>
	<path style="fill:#5091CC;" d="M322.148,101.96c0,7.77-6.29,14.06-14.06,14.06h-175.78c-3.88,0-7.4-1.57-9.95-4.12
		c-2.55-2.54-4.12-6.05-4.12-9.94c0-25.56,9.41-48.94,24.96-66.84v31.24c0,5.34,4.32,9.66,9.66,9.66s9.67-4.32,9.67-9.66V17.87
		c7.8-5.37,16.39-9.67,25.56-12.7v47.19c0,5.34,4.32,9.66,9.66,9.66s9.67-4.32,9.67-9.66V0.8c4.19-0.53,8.45-0.8,12.78-0.8
		s8.59,0.27,12.77,0.8v51.56c0,5.34,4.33,9.66,9.67,9.66s9.67-4.32,9.67-9.66V5.17c9.16,3.03,17.75,7.33,25.55,12.7v48.49
		c0,5.34,4.33,9.66,9.67,9.66s9.67-4.32,9.67-9.66V35.13C312.738,53.03,322.148,76.4,322.148,101.96z"/>
	<path style="fill:#4D4D4D;" d="M239.808,256.564v6.946c-6.54,1.55-13.37,2.36-20.38,2.36c-7.01,0-13.83-0.81-20.37-2.36v-6.946
		c0-2.266,2.069-3.968,4.292-3.531l0,0c10.621,2.085,21.545,2.085,32.166,0l0,0C237.74,252.596,239.808,254.298,239.808,256.564z"/>
	<rect x="101.92" y="366.19" style="fill:#5091CC;" width="40.5" height="11"/>
	<rect x="296.45" y="366.19" style="fill:#5091CC;" width="40.5" height="11"/>
	<rect x="215.435" y="322.69" style="fill:#5091CC;" width="8" height="116.177"/>
</g>
</svg>